# xmcd
#
# Track frame offsets:
#	150
#	17549
#	31520
#	46129
#	59930
#	74254
#	92429
#	109633
#	126466
#	144325
#	158657
#	170690
#	184736
#	198582
#	212023
#	229261
#	247176
#	264113
#
# Disc length: 3770 seconds
#
# Revision: 1
# Processed by: cddbd v1.4PL0 Copyright (c) Steve Scherf et al.
# Submitted via: audiograbber 1.81.03
#
DISCID=f90eb812
DTITLE=Various - Hott Country 68
DYEAR=2001
DGENRE=Country
TTITLE0=Lonestar - With Me
TTITLE1=Brad Paisley - Wrapped Around
TTITLE2=Jason McCoy - Ten Million Teardrops
TTITLE3=Toby Keith - I Wanna Talk About Me
TTITLE4=Alison Krauss - The Lucky One
TTITLE5=Chris Cagle - I Breathe In, I Breathe Out
TTITLE6=Monia - With This Kiss
TTITLE7=Colin Raye - Ain't Nobody ( Gonna Take That From Me )
TTITLE8=Patty Loveless - Strong Heart
TTITLE9=Jeffery Steele - Somethin' In The Water
TTITLE10=Denise Murphy - Not So Fast
TTITLE11=Charlie Robison - Right Man For The Job
TTITLE12=Dwight Yoakam/Buck Owens - I Was There
TTITLE13=Mary Chapin Carpenter - This Is Me Leaving You
TTITLE14=Montgomery Gentry - Cold One Comin' On
TTITLE15=Shannon Brown - Baby I Lied
TTITLE16=Tracy Byrd - Just Let Me Be In Love
TTITLE17=Randy Travis - Baptism
EXTD=
EXTT0=
EXTT1=
EXTT2=
EXTT3=
EXTT4=
EXTT5=
EXTT6=
EXTT7=
EXTT8=
EXTT9=
EXTT10=
EXTT11=
EXTT12=
EXTT13=
EXTT14=
EXTT15=
EXTT16=
EXTT17=
PLAYORDER=
